<?xml version="1.0" standalone="no"?>
<!DOCTYPE svg PUBLIC "-//W3C//DTD SVG 20010904//EN"
 "http://www.w3.org/TR/2001/REC-SVG-20010904/DTD/svg10.dtd">
<svg version="1.0" xmlns="http://www.w3.org/2000/svg"
 width="472.000000pt" height="640.000000pt" viewBox="0 0 472.000000 640.000000"
 preserveAspectRatio="xMidYMid meet">

<g transform="translate(0.000000,640.000000) scale(0.100000,-0.100000)"
fill="#000000" stroke="none">
<path d="M2175 6394 c-488 -52 -866 -196 -1235 -470 -135 -100 -364 -329 -464
-464 -327 -440 -490 -955 -473 -1490 7 -201 25 -330 71 -514 108 -424 328
-802 649 -1112 87 -85 245 -215 316 -260 2 -2 -142 -326 -319 -721 -178 -395
-327 -730 -332 -745 -12 -35 8 -78 44 -96 22 -10 75 -5 365 38 187 27 345 50
352 50 6 0 99 -132 205 -294 107 -162 203 -299 214 -305 28 -15 63 -13 85 3
20 15 66 115 452 978 138 307 252 558 255 558 3 0 117 -251 255 -558 386 -863
432 -963 452 -978 22 -16 57 -18 85 -3 11 6 107 143 214 305 106 162 199 294
205 294 7 0 165 -23 352 -50 290 -43 343 -48 365 -38 36 18 56 61 44 96 -5 15
-154 350 -332 745 -177 395 -321 719 -319 721 71 45 229 175 316 260 321 310
542 689 648 1111 46 182 66 323 72 520 17 531 -148 1047 -473 1485 -100 135
-329 364 -464 464 -322 240 -684 391 -1075 451 -106 16 -442 28 -530 19z m587
-198 c351 -67 712 -234 985 -458 433 -354 717 -868 788 -1428 25 -195 17 -483
-19 -673 -188 -991 -1025 -1730 -2021 -1786 -645 -35 -1239 191 -1690 644
-310 311 -519 708 -601 1142 -32 168 -43 458 -25 629 60 571 350 1110 794
1472 313 256 724 431 1133 482 38 5 170 7 294 5 192 -2 245 -6 362 -29z
m-1432 -4278 c263 -130 499 -195 843 -233 39 -4 57 -11 54 -18 -3 -7 -139
-309 -302 -672 -164 -363 -305 -678 -315 -700 l-17 -40 -169 258 c-125 189
-176 259 -195 266 -19 6 -109 -3 -320 -34 -161 -24 -295 -42 -297 -40 -6 5
571 1286 577 1283 3 -2 67 -33 141 -70z m2494 -569 c158 -352 286 -642 284
-644 -2 -2 -135 16 -297 40 -210 31 -301 40 -320 34 -19 -7 -71 -77 -195 -267
l-169 -257 -13 30 c-7 17 -150 336 -318 709 -168 374 -304 681 -303 682 2 2
62 10 134 18 270 32 534 109 763 225 74 37 138 68 141 69 3 1 135 -286 293
-639z"/>
<path d="M2100 5986 c-658 -95 -1212 -494 -1500 -1081 -229 -467 -264 -996
-100 -1489 224 -668 773 -1153 1479 -1303 118 -26 142 -27 381 -27 239 0 263
1 381 27 706 150 1255 635 1479 1303 117 352 133 731 46 1089 -160 654 -647
1183 -1286 1396 -208 69 -336 90 -575 94 -144 3 -240 0 -305 -9z m530 -171
c281 -41 560 -157 800 -333 105 -77 279 -250 359 -357 169 -225 275 -458 330
-727 121 -584 -62 -1198 -483 -1622 -435 -439 -1065 -624 -1663 -490 -621 139
-1116 585 -1317 1186 -162 486 -104 1044 154 1474 82 137 154 229 269 347 409
419 968 607 1551 522z"/>
<path d="M2303 5428 c-11 -13 -98 -194 -193 -403 -95 -209 -176 -383 -179
-387 -3 -3 -201 -29 -440 -57 -473 -54 -464 -52 -477 -118 -8 -41 7 -57 365
-383 154 -140 280 -262 280 -272 1 -9 -35 -195 -79 -414 -44 -218 -80 -411
-80 -428 0 -68 60 -102 122 -70 18 9 192 106 386 216 l352 199 353 -199 c193
-110 367 -207 385 -216 62 -32 122 2 122 69 0 16 -36 211 -81 433 -44 222 -78
409 -76 416 3 7 143 140 311 295 169 155 313 293 322 306 19 29 12 75 -16 100
-14 13 -109 27 -452 67 -238 27 -436 53 -439 56 -3 4 -84 178 -179 387 -95
209 -182 390 -193 403 -14 15 -32 22 -57 22 -25 0 -43 -7 -57 -22z m207 -585
c80 -175 156 -329 170 -343 24 -25 38 -27 365 -64 187 -21 350 -41 362 -44 19
-6 -13 -39 -243 -250 -146 -134 -270 -254 -276 -267 -8 -18 6 -100 62 -380 39
-196 70 -358 68 -360 -2 -2 -145 77 -318 175 -176 100 -326 179 -340 179 -14
0 -164 -79 -340 -179 -173 -98 -316 -177 -318 -175 -2 2 29 164 68 360 56 280
70 362 62 380 -6 13 -130 133 -276 267 -230 211 -262 244 -243 250 12 3 175
23 362 44 327 37 341 39 365 64 14 14 90 168 170 343 79 174 147 317 150 317
3 0 71 -143 150 -317z"/>
</g>
</svg>
